<?xml version="1.0" encoding="UTF-8" standalone="no"?>
<svg width="40px" height="32px" viewBox="0 0 40 32" version="1.1" xmlns="http://www.w3.org/2000/svg" xmlns:xlink="http://www.w3.org/1999/xlink" xmlns:sketch="http://www.bohemiancoding.com/sketch/ns">
    <!-- Generator: Sketch 3.3.2 (12043) - http://www.bohemiancoding.com/sketch -->
    <title>Imported Layers</title>
    <desc>Created with Sketch.</desc>
    <defs></defs>
    <g id="Final" stroke="none" stroke-width="1" fill="none" fill-rule="evenodd" sketch:type="MSPage">
        <g id="constrained-profile-view" sketch:type="MSArtboardGroup" transform="translate(-40.000000, -683.000000)" fill="#D9D9D9">
            <g id="Group-Copy" sketch:type="MSLayerGroup" transform="translate(-4.000000, 0.000000)">
                <g id="Group" sketch:type="MSShapeGroup">
                    <g id="Imported-Layers" transform="translate(44.000000, 683.000000)">
                        <path d="M11.2464865,15.4361379 C11.6,15.3246897 11.9372973,15.2518621 12.2691892,15.2011034 C11.2054054,13.4388966 10.6248649,11.3666207 10.6248649,9.20827586 L10.6248649,9.12331034 C10.6281081,8.74593103 10.6497297,8.37406897 10.6854054,8.00772414 C10.1794595,7.85103448 9.64756757,7.76055172 9.09621622,7.76055172 C5.79135135,7.76055172 3.11243243,10.7685517 3.11243243,14.4794483 C3.11243243,15.8753103 3.49081081,17.1707586 4.13945946,18.2444138 C2.21081081,18.505931 0.717837838,20.1721379 0.717837838,22.2124138 L0.717837838,25.7765517 C0.717837838,27.9966897 2.48216216,29.7975172 4.6572973,29.7975172 L7.32540541,29.7975172 C7.32540541,29.7975172 6.94702703,29.0074483 6.84216216,27.7572414 C6.81945946,27.5873103 6.80324324,27.4173793 6.80324324,27.2408276 L6.80324324,21.5514483 C6.80324324,21.3726897 6.81945946,21.2005517 6.84648649,21.0041379 C6.88216216,20.585931 6.95459459,20.1776552 7.06486486,19.7892414 C7.30594595,18.9329655 7.71027027,18.1517241 8.26918919,17.4653793 C8.59135135,17.0692414 8.94918919,16.7194483 9.33405405,16.425931 C9.90378378,15.990069 10.547027,15.6568276 11.2464865,15.4361379" id="Fill-1"></path>
                        <path d="M36.2162162,18.2444138 C36.8637838,17.1707586 37.2432432,15.8753103 37.2432432,14.4794483 C37.2432432,10.7685517 34.5643243,7.76055172 31.2583784,7.76055172 C30.707027,7.76055172 30.1762162,7.85103448 29.6691892,8.00772414 C29.7059459,8.37517241 29.7275676,8.74703448 29.7297297,9.12441379 L29.7308108,9.13655172 L29.7308108,9.20827586 C29.7308108,11.3666207 29.1491892,13.4388966 28.0854054,15.2011034 C28.4172973,15.2518621 28.7556757,15.3246897 29.1081081,15.4361379 C29.8086486,15.6568276 30.4518919,15.990069 31.0216216,16.425931 C31.4054054,16.7194483 31.7632432,17.0692414 32.0864865,17.4653793 C32.6443243,18.1517241 33.0497297,18.9329655 33.2908108,19.7892414 C33.4,20.1776552 33.4735135,20.585931 33.5124324,21.0284138 C33.5351351,21.2005517 33.5524324,21.3726897 33.5524324,21.5514483 L33.5524324,27.2408276 C33.5524324,27.4173793 33.5351351,27.5873103 33.5102703,27.7748966 C33.4086486,29.0074483 33.0302703,29.7975172 33.0302703,29.7975172 L35.6972973,29.7975172 C37.8735135,29.7975172 39.6367568,27.9966897 39.6367568,25.7765517 L39.6367568,22.2124138 C39.6367568,20.1721379 38.1437838,18.505931 36.2162162,18.2444138" id="Fill-2"></path>
                        <path d="M15.0302703,15.2353103 C15.8518919,16.1555862 16.8540541,16.8617931 17.972973,17.2656552 C18.6691892,17.5172414 19.4097297,17.6529655 20.1772973,17.6529655 C20.9448649,17.6529655 21.6854054,17.5172414 22.3827027,17.2656552 C23.5016216,16.8617931 24.5037838,16.1555862 25.3243243,15.2353103 C25.3762162,15.177931 25.427027,15.1183448 25.4778378,15.0587586 C26.7686486,13.5238621 27.5686486,11.4361379 27.5686486,9.13434483 C27.5686486,9.13103448 27.5675676,9.12662069 27.5675676,9.12331034 C27.5621622,4.43034483 24.2497297,0.615724138 20.1772973,0.615724138 C16.1059459,0.615724138 12.7924324,4.43034483 12.787027,9.12331034 L12.787027,9.13434483 C12.787027,11.4361379 13.5859459,13.5238621 14.8778378,15.0587586 C14.9286486,15.1183448 14.9794595,15.177931 15.0302703,15.2353103" id="Fill-3"></path>
                        <path d="M31.212973,20.3244138 C31.052973,19.7572414 30.7837838,19.2441379 30.4237838,18.8016552 C30.2162162,18.5467586 29.9848649,18.3161379 29.7243243,18.1175172 C29.3502703,17.8306207 28.9275676,17.6143448 28.4702703,17.4708966 C28.0864865,17.3495172 27.6864865,17.2656552 27.2637838,17.2656552 L26.3967568,17.2656552 C26.2691892,17.3892414 26.1372973,17.5051034 26.0032432,17.6209655 C24.3902703,19.0190345 22.372973,19.8598621 20.1772973,19.8598621 C17.9816216,19.8598621 15.9654054,19.0190345 14.3513514,17.6209655 C14.2183784,17.5051034 14.0864865,17.3892414 13.9589189,17.2656552 L13.0918919,17.2656552 C12.6691892,17.2656552 12.2691892,17.3495172 11.8854054,17.4708966 C11.427027,17.6143448 11.0054054,17.8306207 10.6302703,18.1175172 C10.3708108,18.3161379 10.1394595,18.5467586 9.93189189,18.8016552 C9.57189189,19.2441379 9.30162162,19.7572414 9.1427027,20.3244138 C9.07027027,20.5804138 9.02378378,20.8452414 9.00108108,21.1188966 C8.99135135,21.2391724 8.96540541,21.3550345 8.96540541,21.4775172 L8.96540541,27.1668966 C8.96540541,27.286069 8.99027027,27.3986207 9,27.5155862 C9.06810811,28.3442759 9.36540541,29.1001379 9.83567568,29.7224828 C10.5902703,30.7222069 11.7621622,31.3776552 13.0918919,31.3776552 L27.2637838,31.3776552 C28.5924324,31.3776552 29.7643243,30.7222069 30.52,29.7224828 C30.9902703,29.1001379 31.2875676,28.3442759 31.3545946,27.5155862 C31.3643243,27.3986207 31.3902703,27.286069 31.3902703,27.1668966 L31.3902703,21.4775172 C31.3902703,21.3550345 31.3643243,21.2391724 31.3545946,21.1188966 C31.3308108,20.8452414 31.2843243,20.5804138 31.212973,20.3244138" id="Fill-4"></path>
                    </g>
                </g>
            </g>
        </g>
    </g>
</svg>