<?xml version="1.0" encoding="utf-8"?>
<!-- Generator: Adobe Illustrator 19.0.1, SVG Export Plug-In . SVG Version: 6.00 Build 0)  -->
<svg version="1.1" id="Layer_1" xmlns="http://www.w3.org/2000/svg" xmlns:xlink="http://www.w3.org/1999/xlink" x="0px" y="0px"
	 viewBox="0 0 47.8 49.2" style="enable-background:new 0 0 47.8 49.2;" xml:space="preserve">
<style type="text/css">
	.st0{clip-path:url(#SVGID_2_);fill:#D9D9D8;}
	.st1{fill:none;stroke:#D9D9D8;stroke-miterlimit:10;}
	.st2{clip-path:url(#SVGID_4_);fill:#FAFAFA;}
</style>
<g>
	<defs>
		<path id="SVGID_1_" d="M37,13.2C34.2,7.8,28.1,4,22,4c-10,0-18,7-18,15.7c0,5,1.9,9.3,5.5,12.3v7.8l4.3-2.5c3,3.9,7.8,6.4,14,6.4
			c1.1,0,3.1-0.1,4.7-0.3l7.6,4.6v-7.2c1.7-1.4,3.1-3,4.2-4.7C46,33.8,47,31,47,27.9c0-1.8-0.3-3.4-0.9-5
			C44.7,18.7,41.4,15.2,37,13.2z"/>
	</defs>
	<clipPath id="SVGID_2_">
		<use xlink:href="#SVGID_1_"  style="overflow:visible;"/>
	</clipPath>
	<rect x="-1" y="-1" class="st0" width="53" height="54.1"/>
</g>
<path class="st1" d="M37,13.2C34.2,7.8,28.1,4,22,4c-10,0-18,7-18,15.7c0,5,1.9,9.3,5.5,12.3v7.8l4.3-2.5c3,3.9,7.8,6.4,14,6.4
	c1.1,0,3.1-0.1,4.7-0.3l7.6,4.6v-7.2c1.7-1.4,3.1-3,4.2-4.7C46,33.8,47,31,47,27.9c0-1.8-0.3-3.4-0.9-5C44.7,18.7,41.4,15.2,37,13.2
	z"/>
<g>
	<defs>
		<path id="SVGID_3_" d="M16.7,39.3L16.7,39.3l0.6-3.9l2,3.5l-7.8,4.5l-6,3.4v-6.9V32L7,35.1c-4.5-3.8-7-9.2-7-15.4C0,8.7,10,0,22,0
			c10.7,0,20.6,9,20.6,19.7c0,11.2-8.8,20-20.6,20C20.7,39.7,18,39.5,16.7,39.3z M17.4,35.3c1.1,0.2,3.5,0.4,4.7,0.4
			c10,0,16.6-7.4,16.6-16C38.7,11,30.3,4,22,4c-10,0-18,7-18,15.7c0,5,1.9,9.3,5.5,12.3v7.8L17.4,35.3z"/>
	</defs>
	<clipPath id="SVGID_4_">
		<use xlink:href="#SVGID_3_"  style="overflow:visible;"/>
	</clipPath>
	<rect x="-5" y="-5" class="st2" width="52.7" height="56.7"/>
</g>
</svg>
