<?xml version="1.0" encoding="UTF-8" standalone="no"?>
<svg width="125px" height="40px" viewBox="0 0 125 40" version="1.1" xmlns="http://www.w3.org/2000/svg" xmlns:xlink="http://www.w3.org/1999/xlink" xmlns:sketch="http://www.bohemiancoding.com/sketch/ns">
    <!-- Generator: Sketch 3.3.2 (12043) - http://www.bohemiancoding.com/sketch -->
    <title>Imported Layers Copy + Imported Layers 8 + Fill 1</title>
    <desc>Created with Sketch.</desc>
    <defs></defs>
    <g id="Final" stroke="none" stroke-width="1" fill="none" fill-rule="evenodd" sketch:type="MSPage">
        <g id="Imported-Layers-Copy-+-Imported-Layers-8-+-Fill-1" sketch:type="MSLayerGroup" fill="#D9D9D9">
            <path d="M74.6502625,13.7334291 L71.1464787,11.1528885 L71.1681003,6.45126692 C71.1724247,5.58207773 70.8362085,4.76369936 70.2232355,4.14748314 C69.6102625,3.532348 68.7940463,3.19288854 67.9248571,3.19288854 L66.8275598,3.19288854 C65.9605328,3.19288854 65.1443166,3.53126692 64.5302625,4.14640206 C64.0643166,4.61559125 63.7583706,5.20153719 63.6394517,5.83937503 L58.4340463,0.752888544 C58.4026949,0.722618274 58.3702625,0.694510166 58.3356679,0.66856422 C57.1670193,-0.229814158 55.5378301,-0.224408753 54.3540463,0.694510166 L38.2491814,13.7582939 C37.1572895,14.6069426 36.7410733,15.8945102 37.1605328,17.1204561 C37.5951274,18.3885642 38.8340463,19.2664021 40.3064787,19.4036994 L40.3064787,35.6988345 C40.3064787,37.5128885 41.7821544,38.9885642 43.5962085,38.9885642 L69.0999922,38.9885642 C70.9140463,38.9885642 72.389722,37.5128885 72.389722,35.6988345 L72.389722,19.4199156 C73.9691814,19.3604561 75.3205328,18.452348 75.7756679,17.1118075 C76.1929652,15.8804561 75.7681003,14.5907264 74.6502625,13.7334291 L74.6502625,13.7334291 Z M52.6978301,36.8264021 L52.6978301,26.6166723 C52.6978301,26.0199156 53.1821544,25.5355912 53.7789112,25.5355912 L58.1032355,25.5355912 C58.6999922,25.5355912 59.1843166,26.0199156 59.1843166,26.6166723 L59.1843166,36.8264021 L52.6978301,36.8264021 L52.6978301,36.8264021 Z" id="Imported-Layers-Copy" sketch:type="MSShapeGroup"></path>
            <path d="M14.4444444,0 C7.08111111,0 0,6.88972973 0,14.0540541 C0,19.5372973 8.92111111,32.4724324 12.5866667,37.9372973 C13.4633333,39.2454054 15.4255556,39.2454054 16.3033333,37.9372973 C19.9688889,32.4724324 28.8888889,19.5372973 28.8888889,14.0540541 C28.8888889,6.88972973 21.8088889,0 14.4444444,0 L14.4444444,0 Z M14.4444444,19.4594595 C11.3766667,19.4594595 8.88888889,17.0389189 8.88888889,14.0540541 C8.88888889,11.0691892 11.3766667,8.64864865 14.4444444,8.64864865 C17.5133333,8.64864865 20,11.0691892 20,14.0540541 C20,17.0389189 17.5133333,19.4594595 14.4444444,19.4594595 L14.4444444,19.4594595 Z" id="Imported-Layers-8" sketch:type="MSShapeGroup"></path>
            <path d="M92.2290833,20.5675676 C93.13475,21.6627027 94.2191667,22.5675676 95.4346667,23.2291892 C96.86575,24.0097297 98.468,24.4594595 100.166667,24.4594595 C101.865333,24.4594595 103.467583,24.0097297 104.89975,23.2291892 C106.114167,22.5675676 107.198583,21.6627027 108.10425,20.5675676 C108.498583,20.0908108 108.852833,19.5751351 109.174583,19.0345946 C109.168083,19.0335135 109.161583,19.0313514 109.155083,19.0313514 C109.428083,18.5859459 109.672917,18.1167568 109.890667,17.6313514 C109.9795,17.4259459 110.06725,17.2194595 110.146333,17.0075676 C110.163667,16.9632432 110.182083,16.9210811 110.198333,16.8767568 C110.686917,15.5156757 110.95775,14.0324324 110.95775,12.4789189 C110.95775,5.87351351 106.117417,0.499459459 100.166667,0.499459459 C94.2159167,0.499459459 89.3755833,5.87351351 89.3755833,12.4789189 C89.3755833,14.0324324 89.6464167,15.5156757 90.135,16.8767568 C90.15125,16.9210811 90.17075,16.9632432 90.187,17.0075676 C90.2660833,17.2194595 90.3538333,17.4259459 90.4426667,17.6313514 C90.6604167,18.1167568 90.90525,18.5859459 91.17825,19.0313514 C91.17175,19.0313514 91.16525,19.0335135 91.15875,19.0345946 C91.4805,19.5751351 91.83475,20.0908108 92.2290833,20.5675676 Z M111.299,19.68 C110.862417,20.48 110.357583,21.2410811 109.77475,21.9437838 C108.68275,23.2637838 107.391417,24.3351351 105.937583,25.1275676 C104.117583,26.1189189 102.17625,26.6216216 100.166667,26.6216216 C98.1570833,26.6216216 96.21575,26.1189189 94.39575,25.1275676 C92.9419167,24.3351351 91.6505833,23.2637838 90.5585833,21.9437838 C89.9768333,21.2410811 89.4709167,20.48 89.0343333,19.68 C86.6499167,20.8291892 85,23.2551351 85,26.0767568 L85,32.3837838 C85,36.3145946 88.1925833,39.5005405 92.1315833,39.5005405 L108.20175,39.5005405 C112.14075,39.5005405 115.333333,36.3145946 115.333333,32.3837838 L115.333333,26.0767568 C115.333333,23.2551351 113.683417,20.8291892 111.299,19.68 Z M124,6.43243243 L113.166667,6.43243243 L112.166667,6.43243243 L112.166667,8.43243243 L113.166667,8.43243243 L124,8.43243243 L125,8.43243243 L125,6.43243243 L124,6.43243243 Z M124,16.1621622 L114.25,16.1621622 L113.25,16.1621622 L113.25,18.1621622 L114.25,18.1621622 L124,18.1621622 L125,18.1621622 L125,16.1621622 L124,16.1621622 Z M124,26.972973 L118.583333,26.972973 L117.583333,26.972973 L117.583333,28.972973 L118.583333,28.972973 L124,28.972973 L125,28.972973 L125,26.972973 L124,26.972973 Z" id="Fill-1" sketch:type="MSShapeGroup"></path>
        </g>
    </g>
</svg>