<?xml version="1.0" encoding="UTF-8" standalone="no"?>
<svg width="240px" height="120px" viewBox="0 0 240 120" version="1.1" xmlns="http://www.w3.org/2000/svg" xmlns:xlink="http://www.w3.org/1999/xlink" xmlns:sketch="http://www.bohemiancoding.com/sketch/ns">
    <!-- Generator: Sketch 3.3.2 (12043) - http://www.bohemiancoding.com/sketch -->
    <title>Imported Layers Copy</title>
    <desc>Created with Sketch.</desc>
    <defs></defs>
    <g id="Final" stroke="none" stroke-width="1" fill="none" fill-rule="evenodd" sketch:type="MSPage">
        <path d="M180,0 C166.29,0 153.81,4.77 143.7,12.51 C138.24,5.1 129.9,0 120,0 C110.1,0 101.73,5.1 96.27,12.51 C86.19,4.77 73.71,0 60,0 C26.85,0 0,26.85 0,60 C0,93.12 26.85,120 60,120 C93.12,120 120,93.12 120,60 C120,93.12 146.85,120 180,120 C213.12,120 240,93.12 240,60 C240,26.85 213.12,0 180,0 L180,0 Z M60,90 C43.44,90 30,76.56 30,60 C30,43.41 43.44,30 60,30 C76.56,30 90,43.41 90,60 C90,76.56 76.56,90 60,90 L60,90 Z M180,90 C163.44,90 150,76.56 150,60 C150,43.41 163.44,30 180,30 C196.56,30 210,43.41 210,60 C210,76.56 196.56,90 180,90 L180,90 Z" id="Imported-Layers-Copy" fill="#1ABC9C" sketch:type="MSShapeGroup"></path>
    </g>
</svg>